<?xml version="1.0" encoding="UTF-8" standalone="no"?>
<!-- Created with Inkscape (http://www.inkscape.org/) -->

<svg
   xmlns:dc="http://purl.org/dc/elements/1.1/"
   xmlns:cc="http://creativecommons.org/ns#"
   xmlns:rdf="http://www.w3.org/1999/02/22-rdf-syntax-ns#"
   xmlns:svg="http://www.w3.org/2000/svg"
   xmlns="http://www.w3.org/2000/svg"
   xmlns:sodipodi="http://sodipodi.sourceforge.net/DTD/sodipodi-0.dtd"
   xmlns:inkscape="http://www.inkscape.org/namespaces/inkscape"
   version="1.0"
   width="278.3121"
   height="407.39142"
   id="svg2980"
   sodipodi:version="0.32"
   inkscape:version="0.92.3 (2405546, 2018-03-11)"
   sodipodi:docname="app_logo.svg"
   inkscape:output_extension="org.inkscape.output.svg.inkscape"
   sodipodi:modified="true"
   inkscape:export-filename="/home/stefan/tmp/app_logo.png"
   inkscape:export-xdpi="299.97687"
   inkscape:export-ydpi="299.97687">
  <sodipodi:namedview
     inkscape:window-height="1359"
     inkscape:window-width="2560"
     inkscape:pageshadow="2"
     inkscape:pageopacity="0.0"
     guidetolerance="10.0"
     gridtolerance="10.0"
     objecttolerance="10.0"
     borderopacity="1.0"
     bordercolor="#666666"
     pagecolor="#ffffff"
     id="base"
     inkscape:zoom="2.1427478"
     inkscape:cx="118.43217"
     inkscape:cy="185.78152"
     inkscape:window-x="0"
     inkscape:window-y="0"
     inkscape:current-layer="svg2980"
     showgrid="false"
     inkscape:window-maximized="1" />
  <defs
     id="defs2982">
    <filter
       inkscape:collect="always"
       style="color-interpolation-filters:sRGB"
       id="filter1009"
       x="-0.036645227"
       width="1.0732905"
       y="-0.069550784"
       height="1.1391016">
      <feGaussianBlur
         inkscape:collect="always"
         stdDeviation="2.3460937"
         id="feGaussianBlur1011" />
    </filter>
  </defs>
  <flowRoot
     xml:space="preserve"
     id="flowRoot881-0"
     style="font-style:normal;font-weight:normal;font-size:40px;line-height:125%;font-family:sans-serif;letter-spacing:0px;word-spacing:0px;fill:#646464;fill-opacity:1;stroke:none;stroke-width:0.69278568px;stroke-linecap:butt;stroke-linejoin:miter;stroke-opacity:1;filter:url(#filter1009)"
     transform="matrix(1.4434479,0,0,1.4434479,-6.5221238,-32.482991)"><flowRegion
       id="flowRegion883-3"
       style="fill:#646464;fill-opacity:1;stroke-width:0.69278568px"><rect
         id="rect885-9"
         width="223.54474"
         height="306.61563"
         x="25.667976"
         y="66.240685"
         style="fill:#646464;fill-opacity:1;stroke-width:0.69278568px" /></flowRegion><flowPara
       id="flowPara887-1"
       style="fill:#646464;fill-opacity:1;stroke-width:0.69278568px">Arbeits-bericht</flowPara></flowRoot>  <g
     id="layer1"
     transform="matrix(0.4380028,0,0,0.4380028,-30.12103,-10.133869)">
    <g
       transform="matrix(0.925608,0,0,0.925608,19.6604,67.17153)"
       id="g3058">
      <path
         d="M 108.8664,955.33893 C 94.324928,951.52753 82.150604,943.41583 75.478596,933.09303 C 71.559602,927.02953 68.555544,919.05278 68.555544,914.71002 C 68.555544,913.4258 66.393823,909.97939 63.549706,906.72926 C 60.796495,903.58301 57.308995,898.49433 55.799706,895.42107 L 53.055544,889.83333 L 53.055544,470.83333 L 53.055544,51.83333 L 55.983771,45.83333 C 61.415633,34.70333 73.750086,25.14667 88.563106,20.591065 C 93.551188,19.057028 104.27134,18.873138 205.30554,18.588505 L 316.55554,18.275093 L 316.55691,13.554212 C 316.5583,8.742465 318.72268,-4.721026 320.37483,-10.195142 C 321.645,-14.403606 325.37182,-21.546343 328.31335,-25.409905 C 334.69895,-33.797085 354.84431,-44.653578 367.85424,-46.718799 C 378.78206,-48.453503 401.64923,-47.428272 412.05554,-44.73707 C 440.43351,-37.39817 458.55554,-15.671072 458.55554,11.01331 L 458.55554,18.273092 L 565.80554,18.553211 L 673.05554,18.83333 L 680.88337,21.60239 C 695.50241,26.77381 705.23327,34.77185 711.11425,46.44992 C 713.34892,50.88737 715.59716,53.81397 717.83285,55.1957 C 723.30058,58.57494 732.45456,68.87108 735.06963,74.58313 C 736.40724,77.50487 737.95486,83.03142 738.50879,86.86436 C 739.81444,95.89899 739.90706,906.12429 738.60346,915.13937 C 735.80412,934.49843 720.57777,949.57313 697.98753,955.35073 C 690.34415,957.30553 686.21603,957.33253 403.14558,957.27823 C 125.23704,957.22493 115.82562,957.16293 108.8664,955.33893 z M 683.05803,893.3293 C 683.76898,892.17895 692.70811,131.6784 692.31447,105.83333 L 692.05554,88.83333 L 601.55554,87.78547 C 551.78054,87.20915 510.75119,86.87772 510.37921,87.04895 C 510.00723,87.22019 510.11763,88.80641 510.62453,90.57389 C 511.93212,95.13319 510.96951,97.18223 507.24918,97.75875 C 505.49268,98.03094 452.18871,98.42497 388.79592,98.63436 C 293.43672,98.94935 273.34465,98.78415 272.42628,97.67758 C 271.3826,96.42003 272.25286,92.49833 274.97161,86.20742 C 275.60065,84.75188 273.75574,84.51703 257.36491,83.96621 C 247.29476,83.6278 206.36962,83.06372 166.42017,82.7127 L 93.784804,82.07449 L 93.176513,102.45391 C 92.145748,136.98744 84.070454,886.18157 84.721973,886.83309 C 85.058867,887.16999 211.04674,888.93605 364.69502,890.75767 C 699.68172,894.72921 682.27971,894.58865 683.05803,893.3293 z M 405.55554,12.447522 C 405.55554,4.920924 401.73722,-2.78226 395.73849,-7.357638 C 387.51161,-13.632487 379.42818,-12.749214 371.60841,-4.720954 C 365.37372,1.679968 363.09508,9.361832 365.53079,15.76823 L 366.50604,18.33333 L 386.03079,18.33333 L 405.55554,18.33333 L 405.55554,12.447522 z "
         style="fill:#d7d7d7"
         id="path3046" />
      <path
         d="M 120.05554,951.69553 C 98.219956,949.12323 81.17639,937.50463 75.830149,921.54688 C 74.72508,918.24842 72.017169,914.48073 66.810339,908.99703 C 61.900886,903.82651 58.295704,898.89383 56.212618,894.49703 L 53.055544,887.83333 L 53.055544,470.83333 L 53.055544,53.83333 L 56.283443,47.01828 C 61.718183,35.54395 72.698656,26.64945 87.555544,21.686992 C 92.72451,19.960467 99.826693,19.819303 205.55554,19.341613 L 318.05554,18.83333 L 318.69494,10.83333 C 319.94901,-4.857351 323.50311,-16.798173 329.10547,-24.14324 C 332.34753,-28.393808 341.80665,-35.263867 350.33087,-39.559032 C 360.88411,-44.876578 367.16301,-46.051773 384.55554,-45.964719 C 406.38887,-45.855438 419.20779,-42.753346 431.36013,-34.638324 C 447.59464,-23.797332 456.13547,-9.087181 457.471,10.33333 L 458.05554,18.83333 L 566.05554,19.342742 C 667.73114,19.822323 674.37762,19.960541 679.55554,21.703053 C 696.70947,27.47581 706.48187,36.41764 712.97636,52.28335 C 715.45111,58.32904 717.71975,61.87306 721.96226,66.32088 C 725.0837,69.59339 728.85664,74.87244 730.34657,78.05211 L 733.05554,83.83333 L 733.05554,501.33333 L 733.05554,918.83333 L 730.12258,924.83333 C 724.54753,936.23833 712.77431,945.35983 697.5102,950.10043 C 692.44197,951.67453 671.90029,951.80353 407.55554,951.92173 C 251.08054,951.99173 121.70554,951.88993 120.05554,951.69553 z M 684.32599,874.83333 C 685.182,814.69728 693.38961,88.83406 693.21555,88.66001 C 692.80658,88.25103 509.41565,86.13989 509.01598,86.53956 C 508.79255,86.76298 509.0836,88.66194 509.66275,90.75945 C 510.42578,93.5229 510.40464,94.88433 509.58601,95.70322 C 508.76231,96.52718 476.63843,96.91256 391.0059,97.1258 L 273.55554,97.41826 L 273.55554,94.61099 C 273.55554,93.06699 274.46254,90.11144 275.5711,88.04311 C 277.07411,85.23882 277.26483,84.17918 276.3211,83.8762 C 273.98917,83.12755 94.085113,81.40313 93.413074,82.12299 C 92.47884,83.12369 83.392917,886.58867 84.306628,887.40276 C 85.241708,888.23589 585.93679,894.10748 642.55554,893.94929 L 684.05554,893.83333 L 684.32599,874.83333 z M 407.12469,15.816434 C 407.87194,11.833247 406.36267,4.835762 403.57972,-0.619278 C 399.95641,-7.721553 391.19595,-13.63943 384.27342,-13.661093 C 380.98753,-13.671376 375.08937,-10.601672 371.22081,-6.867843 C 365.74869,-1.586319 363.55554,3.199557 363.55554,9.859233 C 363.55554,19.738285 362.59425,19.33333 386.04541,19.33333 L 406.46491,19.33333 L 407.12469,15.816434 z "
         style="fill:#c7c7c7"
         id="path3044" />
      <path
         d="M 117.53331,950.36583 C 100.20262,948.10463 84.665621,937.96393 78.41385,924.83333 C 76.842649,921.53333 75.556767,918.28093 75.556333,917.60578 C 75.555899,916.93063 72.233644,913.20013 68.173544,909.31577 C 63.691042,905.0273 59.468664,899.81415 57.423544,896.04332 L 54.055544,889.83333 L 54.055544,471.31231 L 54.055544,52.7913 L 57.329657,46.14062 C 62.836004,34.95562 74.263118,26.17332 89.118495,21.709317 C 94.628922,20.053449 102.95987,19.900999 205.05554,19.587756 C 265.55554,19.402134 316.02709,19.492248 317.21455,19.788011 C 319.03437,20.241277 319.55036,21.465363 320.49894,27.57955 C 321.11789,31.56913 321.84479,36.24553 322.11427,37.97156 C 322.59418,41.04545 322.68264,41.09218 326.42841,40.25056 C 332.40767,38.90711 366.78692,29.43528 367.20638,29.01582 C 367.41286,28.80935 366.90136,27.0119 366.06971,25.02149 C 364.63154,21.579452 364.66024,21.347662 366.65705,20.279004 C 368.07398,19.520685 375.22214,19.265617 388.64573,19.49438 C 403.01184,19.739205 408.65757,19.513322 408.97642,18.68096 C 409.2192,18.047156 411.58632,17.031056 414.23669,16.422961 C 416.88706,15.814866 421.53054,14.62284 424.55554,13.774015 C 432.16814,11.637895 444.05324,8.466383 450.21118,6.927864 L 455.36683,5.639763 L 455.96118,8.611546 C 456.28808,10.246027 456.55554,13.309971 456.55554,15.42031 L 456.55554,19.25729 L 564.30554,19.589362 C 683.46111,19.956585 675.33144,19.509395 689.5102,26.47651 C 701.38433,32.31119 711.38031,44.85036 714.05523,57.26634 C 714.55976,59.6082 716.49726,62.25526 720.15108,65.59464 C 723.61589,68.76129 726.66348,72.83844 728.78143,77.14056 L 732.05554,83.79119 L 732.3103,498.78999 C 732.54008,873.11796 732.41146,914.31713 730.99781,919.17992 C 726.95118,933.09983 715.1876,943.61033 697.5102,949.10043 C 692.44258,950.67433 671.86851,950.80483 407.55554,950.94043 C 251.08054,951.02073 120.57054,950.76213 117.53331,950.36583 z M 684.08672,894.28287 C 684.84177,893.06119 693.67948,140.12744 693.3061,108.83333 L 693.05554,87.83333 L 643.05554,87.23481 C 615.55554,86.90562 574.15554,86.45562 551.05554,86.23481 L 509.05554,85.83333 L 509.34674,90.49885 C 509.5069,93.06488 509.2819,95.3792 508.84674,95.64176 C 508.41158,95.90433 455.63054,96.27985 391.55554,96.47624 L 275.05554,96.83333 L 274.72968,94.53517 C 274.55045,93.27118 275.3589,90.40463 276.52623,88.16505 C 277.69356,85.92548 278.39371,83.83817 278.08212,83.52658 C 277.26999,82.71444 93.685577,80.86996 92.889601,81.66594 C 92.5253,82.03024 90.304929,249.16694 87.955443,453.08082 C 83.433467,845.5471 83.04267,887.15379 83.870575,887.98169 C 84.312717,888.42384 594.42295,894.80568 660.74652,895.19883 C 675.6633,895.28725 683.65994,894.97343 684.08672,894.28287 z "
         style="fill:#b6b6b6"
         id="path3042" />
      <path
         d="M 110.66447,947.75623 C 94.062665,943.27823 83.777397,934.80983 78.163093,920.99617 C 76.464912,916.81789 74.076697,913.76303 68.266142,908.33662 C 62.642729,903.08497 59.736924,899.41592 57.331518,894.5299 L 54.055544,887.87551 L 53.762213,474.85442 C 53.546159,170.64278 53.76693,60.25264 54.600219,55.83333 C 57.693814,39.42659 72.533836,25.98666 92.143105,21.832452 C 102.39777,19.66001 315.6995,19.596935 317.4995,21.765811 C 320.33398,25.18114 321.76261,52.57244 319.50013,60.12392 C 318.15489,64.61395 314.83903,68.63078 310.77354,70.69532 C 309.27864,71.45447 303.57319,73.52282 298.09475,75.29167 C 292.61632,77.06051 286.38017,79.40247 284.23664,80.49602 C 279.65361,82.83411 281.34205,82.82231 166.59496,81.31772 C 126.19164,80.78794 92.826322,80.68723 92.4498,81.09391 C 92.073279,81.50059 89.922225,246.30833 87.669682,447.33333 C 85.417139,648.35833 83.281414,829.79631 82.923627,850.52883 L 82.273106,888.22434 L 84.664325,888.71115 C 89.601818,889.71635 683.56045,895.72824 684.4154,894.78168 C 685.0629,894.06477 692.25644,297.86726 693.81998,115.33333 L 694.05554,87.83333 L 664.05554,87.20174 C 647.55554,86.85437 604.83593,86.27477 569.12307,85.91374 C 505.92462,85.27486 504.15356,85.20444 502.80346,83.2769 C 500.80701,80.42657 493.64916,77.05992 480.52664,72.79914 C 462.80631,67.04549 459.34012,64.79079 455.96119,56.81968 C 453.1666,50.22708 454.33869,25.70939 457.63852,21.733343 C 459.38866,19.624557 664.83376,19.685318 674.80126,21.79757 C 693.6141,25.78427 707.826,38.15868 712.16832,54.33333 C 713.62788,59.77004 714.87047,61.84667 719.76444,67.02802 C 722.98255,70.4351 726.83954,75.8351 728.33554,79.02802 L 731.05554,84.83333 L 731.05554,500.33333 C 731.05554,893.82317 730.96264,916.09819 729.30174,920.83333 C 725.53399,931.57503 714.78594,941.45633 701.4438,946.44483 L 695.05554,948.83333 L 405.55554,949.02183 C 155.00615,949.18503 115.3302,949.01473 110.66447,947.75623 z M 481.78925,93.76629 C 482.10112,93.45442 484.98862,92.53751 488.20592,91.72871 C 491.42321,90.91992 496.53054,89.62196 499.55554,88.84434 C 504.51984,87.56821 505.17729,87.59049 506.30554,89.07305 C 506.99304,89.97645 507.55554,91.52958 507.55554,92.52446 C 507.55554,94.17803 506.42513,94.33333 494.38887,94.33333 C 487.14721,94.33333 481.47738,94.07816 481.78925,93.76629 z M 380.40774,34.98764 C 373.90005,32.58215 367.57775,26.23097 367.56213,22.08333 C 367.55609,20.479489 369.10065,20.33333 386.05554,20.33333 C 404.17028,20.33333 404.55554,20.376972 404.55554,22.42896 C 404.55554,27.61362 395.78131,34.71492 388.05554,35.783 C 385.76041,36.1003 382.50079,35.7613 380.40774,34.98764 z "
         style="fill:#868686"
         id="path3040" />
      <path
         d="M 95.506148,921.27241 C 88.400341,920.22622 79.161011,916.7943 74.055544,913.30464 C 67.680375,908.94713 59.675253,899.825 56.751431,893.58597 L 54.055544,887.83333 L 53.762213,474.83333 C 53.546159,170.63739 53.76693,60.25264 54.600219,55.83333 C 57.709591,39.34292 72.595513,25.92798 92.356963,21.807596 C 98.436935,20.539886 115.26761,20.361395 208.21816,20.578881 L 316.96608,20.83333 L 317.88956,24.83333 C 318.39747,27.03333 318.8676,35.58333 318.93429,43.83333 C 319.1119,65.80586 317.88823,67.63146 299.05554,73.49049 C 293.55554,75.20159 286.80554,77.7362 284.05554,79.12294 L 279.05554,81.64429 L 186.05554,80.59031 C 116.14605,79.79802 92.77787,79.82148 91.937178,80.68483 C 90.437485,82.22493 81.196992,887.35737 82.662075,888.83283 C 83.537703,889.71466 574.11896,896.04788 658.26023,896.26359 L 685.46491,896.33333 L 685.9344,893.08333 C 686.19261,891.29583 688.23639,719.05833 690.47613,510.33333 C 692.71587,301.60833 694.79137,121.38333 695.08835,109.83333 C 695.38533,98.28333 695.27444,88.31984 694.84193,87.69223 C 694.27208,86.86535 668.30945,86.23269 600.55554,85.39465 L 507.05554,84.23816 L 504.05554,81.3977 C 499.91214,77.47464 496.61933,75.96674 481.86409,71.23541 C 459.72773,64.13729 456.57774,61.13869 455.885,46.50492 C 455.65922,41.73555 456.05523,34.00833 456.76502,29.33333 L 458.05554,20.83333 L 562.8474,20.578717 C 651.19846,20.364051 668.72933,20.551392 674.58729,21.772811 C 693.02464,25.61711 707.53139,37.87019 711.97899,53.3556 C 713.41751,58.36416 713.54135,97.48307 713.3103,473.87667 L 713.05554,888.87547 L 709.78143,895.5261 C 703.58959,908.10343 689.25722,917.94992 672.89739,920.86585 C 666.29665,922.04234 620.42405,922.24978 383.05554,922.1765 C 227.95554,922.12862 98.558316,921.72178 95.506148,921.27241 z M 377.39757,32.31246 C 373.54269,30.27595 367.55554,23.76264 367.55554,21.605486 C 367.55554,20.621788 371.75037,20.33333 386.05554,20.33333 C 400.36071,20.33333 404.55554,20.621788 404.55554,21.605486 C 404.55554,23.84067 398.49405,30.32405 394.49865,32.36235 C 389.55881,34.88247 382.2218,34.86106 377.39757,32.31246 z "
         style="fill:#cf691e"
         id="path3038" />
      <path
         d="M 91.27644,916.76659 C 83.191111,914.80774 75.095305,910.62414 69.290459,905.40509 C 63.226677,899.95323 60.16356,895.23265 58.113266,888.17988 C 56.699623,883.31712 56.570981,842.21318 56.800777,468.81102 L 57.055544,54.83333 L 59.929709,48.61096 C 63.435511,41.02113 70.806711,33.74973 79.384244,29.4198 C 91.793956,23.1554 87.393205,23.36434 207.27036,23.34811 L 316.48517,23.33333 L 317.70015,25.58333 C 318.49448,27.05433 318.93944,33.19974 318.98534,43.33333 C 319.0875,65.88927 317.94855,67.61269 299.05554,73.49049 C 293.55554,75.20159 286.80554,77.7362 284.05554,79.12294 L 279.05554,81.64429 L 186.05554,80.59031 C 116.14605,79.79802 92.77787,79.82148 91.937178,80.68483 C 90.437485,82.22493 81.196992,887.35737 82.662075,888.83283 C 83.537703,889.71466 574.11896,896.04788 658.26023,896.26359 L 685.46491,896.33333 L 685.9344,893.08333 C 686.19261,891.29583 688.23639,719.05833 690.47613,510.33333 C 692.71587,301.60833 694.79137,121.38333 695.08835,109.83333 C 695.38533,98.28333 695.27444,88.31984 694.84193,87.69223 C 694.27208,86.86535 668.30945,86.23269 600.55554,85.39465 L 507.05554,84.23816 L 504.05554,81.3977 C 499.91214,77.47464 496.61933,75.96674 481.86409,71.23541 C 466.56268,66.32894 461.51097,63.60777 458.39257,58.59218 C 456.23732,55.12571 456.06399,53.82214 456.16417,41.83333 C 456.22391,34.68333 456.77971,27.58418 457.39926,26.05743 L 458.52573,23.28154 L 566.29063,23.55743 C 673.45895,23.8318 674.08625,23.8451 679.60364,25.96001 C 693.75679,31.38513 701.73848,37.89692 706.77497,48.12748 L 710.05554,54.79128 L 710.05554,470.83333 L 710.05554,886.87538 L 706.77497,893.53918 C 701.25718,904.7474 689.43558,913.49869 675.31581,916.82776 C 666.14109,918.99092 100.2129,918.93164 91.27644,916.76659 z M 378.05554,32.67448 C 376.40554,31.80616 373.81804,29.93998 372.30554,28.52743 C 367.11646,23.68124 368.03745,23.33333 386.05554,23.33333 C 404.07559,23.33333 404.99181,23.67974 399.80554,28.53208 C 393.64292,34.29789 384.46272,36.04631 378.05554,32.67448 z "
         style="fill:#9b4e15"
         id="path3036" />
      <path
         d="M 99.055544,916.71352 C 97.955544,916.49359 94.580544,915.81388 91.555544,915.20305 C 78.900618,912.64768 66.432275,903.39544 61.410075,892.83333 L 58.557122,886.83333 L 58.557122,470.83333 L 58.557122,54.83333 L 61.410075,48.83333 C 66.159146,38.84564 75.667407,31.3719 89.555544,26.71027 C 94.747721,24.96749 101.22667,24.84745 205.31762,24.56541 L 315.57969,24.26665 L 316.60852,26.97267 C 317.17437,28.46098 317.85786,35.33849 318.12737,42.25601 C 318.53288,52.66404 318.31023,55.69172 316.83647,59.81019 C 314.54881,66.2031 311.46969,68.25371 297.28033,72.83398 C 291.17354,74.80523 284.48478,77.3692 282.41641,78.53168 L 278.65574,80.6453 L 185.35564,79.54555 C 113.1611,78.69458 91.798273,78.71585 90.918241,79.63957 C 90.088169,80.51085 88.53641,189.96949 85.173945,484.83333 C 80.85695,863.40259 80.673045,888.91201 82.252377,890.08333 C 83.487747,890.99954 90.228689,891.33602 107.49667,891.34342 C 120.45405,891.34897 245.58054,892.69399 385.55554,894.33235 C 525.53054,895.97071 650.49765,897.31617 663.26023,897.32226 L 686.46491,897.33333 L 686.9469,894.08333 C 687.21199,892.29583 689.25758,722.08333 691.49267,515.83333 C 693.72776,309.58333 695.80572,128.90833 696.11037,114.33333 C 696.41501,99.75833 696.30076,87.3113 695.85647,86.67327 C 695.26348,85.82169 670.19641,85.201 601.58826,84.3391 L 508.12783,83.16498 L 504.6453,80.10727 C 500.30841,76.29944 494.27473,73.63747 479.50199,69.01441 C 466.52436,64.95313 462.09789,62.41685 459.10961,57.32993 C 457.32321,54.28898 457.07918,52.33473 457.23692,42.33333 C 457.33668,36.00833 457.81916,29.48333 458.30908,27.83333 L 459.19987,24.83333 L 565.1277,24.83333 C 665.11603,24.83333 671.39197,24.93643 677.05554,26.67204 C 691.48354,31.09351 702.46204,40.122 706.48494,50.87418 L 708.55554,56.40836 L 708.55554,470.83333 L 708.55554,885.2583 L 706.48494,890.79248 C 702.54866,901.31312 691.9883,910.14542 677.55554,914.98795 C 672.26423,916.76331 661.22256,916.83864 386.55554,916.97336 C 229.53054,917.05038 100.15554,916.93345 99.055544,916.71352 z M 379.55554,32.26705 C 376.81268,31.1168 371.55554,26.43742 371.55554,25.14624 C 371.55554,24.69914 378.11804,24.33333 386.13887,24.33333 C 402.17389,24.33333 402.59575,24.55686 396.25158,29.69162 C 393.42382,31.98032 391.36111,32.74197 387.31538,32.9913 C 384.42247,33.16958 380.93054,32.84366 379.55554,32.26705 z "
         style="fill:#7e3500"
         id="path3034" />
    </g>
  </g>
  <metadata
     id="metadata878">
    <rdf:RDF>
      <cc:Work>
        <dc:format>image/svg+xml</dc:format>
        <dc:type
           rdf:resource="http://purl.org/dc/dcmitype/StillImage" />
        <cc:license
           rdf:resource="http://creativecommons.org/publicdomain/zero/1.0/" />
        <dc:publisher>
          <cc:Agent
             rdf:about="http://openclipart.org/">
            <dc:title>Open Clip Art Library</dc:title>
          </cc:Agent>
        </dc:publisher>
        <dc:title></dc:title>
        <dc:date>2007-02-03T12:24:56</dc:date>
        <dc:description>a US Letter size border that looks like a clipboard</dc:description>
        <dc:source>http://openclipart.org/detail/3029/clipboard-background-by-revans2</dc:source>
        <dc:creator>
          <cc:Agent>
            <dc:title>revans2</dc:title>
          </cc:Agent>
        </dc:creator>
        <dc:subject>
          <rdf:Bag>
            <rdf:li>background</rdf:li>
            <rdf:li>background</rdf:li>
            <rdf:li>board</rdf:li>
            <rdf:li>board</rdf:li>
            <rdf:li>clip art</rdf:li>
            <rdf:li>clipart</rdf:li>
            <rdf:li>clipboard</rdf:li>
            <rdf:li>clipboard</rdf:li>
            <rdf:li>externalsource</rdf:li>
            <rdf:li>image</rdf:li>
            <rdf:li>media</rdf:li>
            <rdf:li>public domain</rdf:li>
            <rdf:li>svg</rdf:li>
          </rdf:Bag>
        </dc:subject>
      </cc:Work>
      <cc:License
         rdf:about="http://creativecommons.org/publicdomain/zero/1.0/">
        <cc:permits
           rdf:resource="http://creativecommons.org/ns#Reproduction" />
        <cc:permits
           rdf:resource="http://creativecommons.org/ns#Distribution" />
        <cc:permits
           rdf:resource="http://creativecommons.org/ns#DerivativeWorks" />
      </cc:License>
    </rdf:RDF>
  </metadata>
  <flowRoot
     xml:space="preserve"
     id="flowRoot881"
     style="font-style:normal;font-weight:normal;font-size:40px;line-height:125%;font-family:sans-serif;letter-spacing:0px;word-spacing:0px;fill:#000000;fill-opacity:1;stroke:none;stroke-width:0.69278568px;stroke-linecap:butt;stroke-linejoin:miter;stroke-opacity:1;"
     transform="matrix(1.4434479,0,0,1.4434479,-10.120913,-31.591332)"><flowRegion
       id="flowRegion883"
       style="stroke-width:0.69278568px;fill:#000000;fill-opacity:1;"><rect
         id="rect885"
         width="223.54474"
         height="306.61563"
         x="25.667976"
         y="66.240685"
         style="stroke-width:0.69278568px;fill:#000000;fill-opacity:1;" /></flowRegion><flowPara
       id="flowPara887"
       style="stroke-width:0.69278568px;fill:#000000;fill-opacity:1;">Arbeits-bericht</flowPara></flowRoot>  <g
     id="g915">
    <path
       inkscape:connector-curvature="0"
       id="path889"
       d="M 26.134668,241.91509 H 245.47919"
       style="fill:none;fill-rule:evenodd;stroke:#000000;stroke-width:4.02519703;stroke-linecap:butt;stroke-linejoin:miter;stroke-miterlimit:4;stroke-dasharray:none;stroke-opacity:1" />
    <path
       inkscape:connector-curvature="0"
       id="path889-3"
       d="M 26.134668,289.51751 H 245.47919"
       style="fill:none;fill-rule:evenodd;stroke:#000000;stroke-width:4.02519703;stroke-linecap:butt;stroke-linejoin:miter;stroke-miterlimit:4;stroke-dasharray:none;stroke-opacity:1" />
    <path
       inkscape:connector-curvature="0"
       id="path889-4"
       d="M 26.134668,337.11995 H 245.47918"
       style="fill:none;fill-rule:evenodd;stroke:#000000;stroke-width:4.02519703;stroke-linecap:butt;stroke-linejoin:miter;stroke-miterlimit:4;stroke-dasharray:none;stroke-opacity:1" />
  </g>
</svg>
